<svg width="21" height="21" viewBox="0 0 21 21" fill="none" xmlns="http://www.w3.org/2000/svg">
<g clip-path="url(#clip0)">
<path d="M3.06431 7.00342C2.33962 7.00342 1.75214 7.59092 1.75214 8.31563V14.4393C1.75214 15.164 2.33962 15.7515 3.06431 15.7515C3.789 15.7515 4.37648 15.164 4.37648 14.4393V8.31563C4.37648 7.59092 3.789 7.00342 3.06431 7.00342Z" fill="#274690"/>
<path d="M17.9357 7.00342C17.211 7.00342 16.6235 7.59092 16.6235 8.31563V14.4393C16.6235 15.164 17.211 15.7515 17.9357 15.7515C18.6604 15.7515 19.2479 15.164 19.2479 14.4393V8.31563C19.2479 7.59092 18.6604 7.00342 17.9357 7.00342Z" fill="#274690"/>
<path d="M15.3113 7.00342H5.68869C5.44712 7.00342 5.25128 7.19926 5.25128 7.44083V14.4392C5.25108 15.4786 5.98245 16.3745 7.00086 16.5824V19.6879C7.00086 20.4126 7.58834 21.0001 8.31303 21.0001C9.03772 21.0001 9.6252 20.4126 9.6252 19.6879V16.6261H11.3748V19.6879C11.3748 20.4126 11.9623 21.0001 12.687 21.0001C13.4116 21.0001 13.9991 20.4126 13.9991 19.6879V16.5824C15.0175 16.3745 15.7489 15.4786 15.7487 14.4392V7.44083C15.7487 7.19926 15.5528 7.00342 15.3113 7.00342Z" fill="#274690"/>
<path d="M13.68 1.81751L14.7464 0.752009C14.9201 0.584171 14.9249 0.307299 14.7571 0.133515C14.5893 -0.0402272 14.3124 -0.0450249 14.1386 0.122772C14.135 0.126298 14.1314 0.129866 14.1279 0.133515L12.8857 1.37575C11.3643 0.714857 9.63681 0.714857 8.11541 1.37575L6.87321 0.132654C6.69947 -0.0351835 6.42256 -0.0303448 6.25472 0.143398C6.09102 0.312917 6.09102 0.581629 6.25472 0.751107L7.32022 1.81747C6.02127 2.67695 5.24331 4.13353 5.25134 5.69106C5.25134 5.93263 5.44719 6.12847 5.68875 6.12847H15.3115C15.5531 6.12847 15.7489 5.93263 15.7489 5.69106C15.7569 4.13357 14.979 2.677 13.68 1.81751Z" fill="#274690"/>
<path d="M8.31305 4.37678C8.55463 4.37678 8.75046 4.18094 8.75046 3.93936C8.75046 3.69779 8.55463 3.50195 8.31305 3.50195C8.07148 3.50195 7.87564 3.69779 7.87564 3.93936C7.87564 4.18094 8.07148 4.37678 8.31305 4.37678Z" fill="#F5F3F5"/>
<path d="M12.687 4.37678C12.9286 4.37678 13.1244 4.18094 13.1244 3.93936C13.1244 3.69779 12.9286 3.50195 12.687 3.50195C12.4454 3.50195 12.2496 3.69779 12.2496 3.93936C12.2496 4.18094 12.4454 4.37678 12.687 4.37678Z" fill="#F5F3F5"/>
</g>
<defs>
<clipPath id="clip0">
<rect width="21" height="21" fill="white"/>
</clipPath>
</defs>
</svg>
