<svg width="21" height="21" viewBox="0 0 21 21" fill="none" xmlns="http://www.w3.org/2000/svg">
<path d="M18.943 14.5897C18.8736 14.4824 18.7607 14.4108 18.6341 14.3937C16.968 14.1761 15.7938 12.649 16.0114 10.9829C16.1651 9.80605 16.9892 8.82604 18.1223 8.47261C18.3524 8.39886 18.4791 8.15257 18.4054 7.92247C18.3939 7.88666 18.3779 7.85246 18.3576 7.82071C17.5931 6.44088 16.2336 5.49191 14.6748 5.25C13.8893 5.28749 13.1152 5.45331 12.3832 5.74087C11.8575 5.95243 11.3024 6.08199 10.7373 6.12498C10.1723 6.08199 9.61718 5.95243 9.09148 5.74087C8.35953 5.45331 7.58541 5.28749 6.79988 5.25C5.16629 5.25 1.98744 7.56609 1.98744 11.8124C1.98744 15.8479 4.9309 20.9998 7.23739 20.9998C8.11745 21.0077 8.98694 20.8074 9.77488 20.4153C10.0716 20.2517 10.3996 20.1527 10.7374 20.1248C11.0751 20.1527 11.4031 20.2517 11.6999 20.4153C12.4878 20.8074 13.3573 21.0077 14.2374 20.9998C16.0661 20.9998 18.1302 17.8604 18.9947 14.951C19.0309 14.8289 19.012 14.6969 18.943 14.5897Z" fill="#274690"/>
<path d="M10.2998 5.24995C12.9564 5.24704 15.1094 3.09415 15.1122 0.437509C15.1122 0.195889 14.9164 0 14.6748 0C12.0181 0.00291208 9.86519 2.1558 9.86232 4.81244C9.86228 5.05406 10.0582 5.24995 10.2998 5.24995Z" fill="#274690"/>
</svg>
