<svg width="48" height="48" viewBox="0 0 48 48" fill="none" xmlns="http://www.w3.org/2000/svg">
<g clip-path="url(#clip0)">
<path d="M22.2131 22.229L0.650625 13.15C0.341719 13.0199 0 13.2468 0 13.582V37.8538C0 38.4671 0.373406 39.0188 0.942937 39.2465L21.8572 47.6122C22.165 47.7354 22.5 47.5086 22.5 47.177V22.661C22.5 22.4723 22.3869 22.3022 22.2131 22.229Z" fill="#274690"/>
<path d="M24.1819 19.6496L45.0239 10.874C45.3985 10.7164 45.4086 10.1891 45.0402 10.0173L24.6343 0.494516C24.2322 0.306922 23.7678 0.306922 23.3657 0.494516L2.95978 10.0173C2.59144 10.1891 2.60147 10.7164 2.9761 10.874L23.8181 19.6496C23.9344 19.6986 24.0656 19.6986 24.1819 19.6496Z" fill="#274690"/>
<path d="M25.5 22.661V47.177C25.5 47.5086 25.835 47.7354 26.1428 47.6122L47.0571 39.2465C47.6265 39.0187 48 38.4671 48 37.8538V13.582C48 13.2468 47.6583 13.0199 47.3494 13.15L25.7869 22.229C25.6131 22.3022 25.5 22.4723 25.5 22.661Z" fill="#274690"/>
</g>
<defs>
<clipPath id="clip0">
<rect width="48" height="48" fill="white"/>
</clipPath>
</defs>
</svg>
