<svg width="54" height="54" viewBox="0 0 54 54" fill="none" xmlns="http://www.w3.org/2000/svg">
<path d="M15.9704 23.3457L4.17767 45.5636L14.8865 44.5743L20.0696 53.9983L31.8623 31.7804L15.9704 23.3457Z" fill="#1B264F"/>
<path d="M38.0295 23.3457L49.8222 45.5636L39.1134 44.5743L33.9303 53.9983L22.1376 31.7804L38.0295 23.3457Z" fill="#1B264F"/>
<path d="M27 39.4081C37.8822 39.4081 46.704 30.5863 46.704 19.704C46.704 8.8218 37.8822 0 27 0C16.1177 0 7.2959 8.8218 7.2959 19.704C7.2959 30.5863 16.1177 39.4081 27 39.4081Z" fill="#274690"/>
<path d="M27 33.7675C19.244 33.7675 12.9349 27.4567 12.9349 19.7024C12.9349 11.948 19.244 5.63889 27 5.63889C34.756 5.63889 41.0652 11.9497 41.0652 19.704C41.0652 27.4584 34.756 33.7675 27 33.7675Z" fill="#EBF0FF"/>
<path d="M36.8191 16.5892H29.9782L27.8627 10.0825C27.5909 9.24678 26.4074 9.24678 26.1356 10.0825L24.0219 16.5892H17.1809C16.3013 16.5892 15.9349 17.7152 16.6474 18.2319L22.1816 22.2534L20.0679 28.7601C19.7961 29.5958 20.7533 30.2913 21.4658 29.7747L27 25.7532L32.5342 29.7747C33.2467 30.2913 34.2039 29.5958 33.9321 28.7601L31.8184 22.2534L37.3526 18.2319C38.0634 17.7152 37.6987 16.5892 36.8191 16.5892Z" fill="#274690"/>
</svg>
