<svg width="44" height="44" viewBox="0 0 44 44" fill="none" xmlns="http://www.w3.org/2000/svg">
<g clip-path="url(#clip0)">
<path d="M39.1754 39.8781C32.4426 45.3742 11.4199 45.3742 4.8245 39.8781C-1.90828 34.3819 -1.22127 10.8859 4.8245 4.7028C10.8703 -1.48036 33.1296 -1.48036 39.1754 4.7028C45.2212 10.8859 45.9082 34.382 39.1754 39.8781Z" fill="#E24C4B"/>
<path d="M32.4426 32.4582C31.6182 33.2826 30.2441 33.2826 29.2824 32.4582L22 25.1758L14.7176 32.4582C13.8932 33.2826 12.3817 33.2826 11.5573 32.4582C10.7329 31.6338 10.7329 30.1223 11.5573 29.2979L18.9771 22.0155L11.5573 14.7331C10.7329 13.9088 10.7329 12.5347 11.5573 11.5729C12.3817 10.7485 13.8932 10.7485 14.7176 11.5729L22 18.9927L29.2824 11.5729C30.1067 10.7485 31.4809 10.7485 32.4426 11.5729C33.267 12.3973 33.267 13.9088 32.4426 14.7331L25.1602 22.0155L32.4426 29.2979C33.4045 30.2598 33.4045 31.6338 32.4426 32.4582Z" fill="white"/>
</g>
<defs>
<clipPath id="clip0">
<rect width="44" height="44" fill="white"/>
</clipPath>
</defs>
</svg>
