<svg width="16" height="16" viewBox="0 0 16 16" fill="none" xmlns="http://www.w3.org/2000/svg">
<g clip-path="url(#clip0)">
<path d="M14.2458 14.5011C11.7975 16.4997 4.15286 16.4997 1.75453 14.5011C-0.693754 12.5025 -0.443933 3.95851 1.75453 1.71009C3.95299 -0.538332 12.0473 -0.538332 14.2458 1.71009C16.4442 3.95851 16.694 12.5025 14.2458 14.5011Z" fill="#E24C4B"/>
<path d="M11.797 11.8029C11.4973 12.1027 10.9976 12.1027 10.6479 11.8029L7.99971 9.15478L5.35156 11.8029C5.05178 12.1027 4.50215 12.1027 4.20237 11.8029C3.90259 11.5031 3.90259 10.9535 4.20237 10.6537L6.90048 8.00559L4.20237 5.35745C3.90259 5.05767 3.90259 4.558 4.20237 4.20826C4.50215 3.90848 5.05178 3.90848 5.35156 4.20826L7.99971 6.90636L10.6479 4.20826C10.9476 3.90848 11.4473 3.90848 11.797 4.20826C12.0968 4.50804 12.0968 5.05767 11.797 5.35745L9.1489 8.00559L11.797 10.6537C12.1468 11.0035 12.1468 11.5031 11.797 11.8029Z" fill="white"/>
</g>
<defs>
<clipPath id="clip0">
<rect width="16" height="16" fill="white"/>
</clipPath>
</defs>
</svg>
