<svg width="16" height="16" viewBox="0 0 16 16" fill="none" xmlns="http://www.w3.org/2000/svg">
<g clip-path="url(#clip0)">
<path d="M14.2458 14.5011C11.7975 16.4997 4.15286 16.4997 1.75453 14.5011C-0.693754 12.5025 -0.443933 3.95848 1.75453 1.71006C3.95299 -0.538362 12.0473 -0.538362 14.2458 1.71006C16.4442 3.95848 16.694 12.5025 14.2458 14.5011Z" fill="#8DC640"/>
<path d="M6.85126 12.4525C6.50149 12.4525 6.15175 12.3026 5.95189 12.0028L3.15387 8.40537C2.75414 7.90572 2.85409 7.20622 3.35373 6.80649C3.85337 6.40677 4.55288 6.50671 4.95261 7.00636L6.85126 9.45464L11.0483 4.00847C11.448 3.50883 12.1475 3.40888 12.6472 3.80861C13.1468 4.20834 13.2468 4.90784 12.8471 5.40748L7.75062 12.0028C7.5008 12.2527 7.20103 12.4525 6.85126 12.4525Z" fill="white"/>
</g>
<defs>
<clipPath id="clip0">
<rect width="16" height="16" fill="white"/>
</clipPath>
</defs>
</svg>
