<svg width="44" height="44" viewBox="0 0 44 44" fill="none" xmlns="http://www.w3.org/2000/svg">
<g clip-path="url(#clip0)">
<path d="M39.1754 39.8781C32.4426 45.3742 11.4199 45.3742 4.8245 39.8781C-1.90828 34.3819 -1.22127 10.886 4.8245 4.7028C10.8703 -1.48036 33.1296 -1.48036 39.1754 4.7028C45.2212 10.886 45.9082 34.382 39.1754 39.8781Z" fill="#8DC640"/>
<path d="M18.8397 34.2444C17.8778 34.2444 16.9161 33.8322 16.3664 33.0078L8.67188 23.1148C7.57263 21.7407 7.84749 19.8171 9.2215 18.7179C10.5955 17.6186 12.5192 17.8935 13.6184 19.2675L18.8397 26.0003L30.3816 11.0233C31.4809 9.64929 33.4045 9.37443 34.7785 10.4737C36.1525 11.5729 36.4274 13.4966 35.3281 14.8706L21.313 33.0078C20.6259 33.6948 19.8016 34.2444 18.8397 34.2444Z" fill="white"/>
</g>
<defs>
<clipPath id="clip0">
<rect width="44" height="44" fill="white"/>
</clipPath>
</defs>
</svg>
