<svg width="44" height="44" viewBox="0 0 44 44" fill="none" xmlns="http://www.w3.org/2000/svg">
<path d="M29.0641 29.6091L23.5643 24.1001C23.2068 23.7417 22.6264 23.741 22.268 24.0985C22.0956 24.2704 21.9987 24.5038 21.9987 24.7473V37.5892C21.9989 37.9836 22.2515 38.3336 22.6256 38.4582C22.719 38.4897 22.8167 38.5059 22.9153 38.5059C23.2038 38.5059 23.4755 38.37 23.6486 38.1392L29.1484 30.8062C29.4217 30.4416 29.3858 29.9317 29.0641 29.6091Z" fill="#95A9DA"/>
<path d="M25.0382 27.5539L19.5385 25.7206C19.0584 25.5601 18.539 25.8192 18.3784 26.2993C18.3155 26.4875 18.3154 26.691 18.378 26.8793L22.0446 37.8788C22.1694 38.2537 22.5203 38.5063 22.9153 38.5058H22.9721C23.3862 38.48 23.7314 38.1793 23.8136 37.7725L25.6468 28.6062C25.7392 28.152 25.478 27.7003 25.0382 27.5539Z" fill="#1B264F"/>
<path d="M43.6055 2.01483C43.3134 1.81057 42.9294 1.79416 42.621 1.97264L7.78913 22.1385C7.35121 22.3924 7.20203 22.9533 7.45596 23.3913C7.56819 23.5849 7.74736 23.7307 7.95962 23.8012L24.4223 29.29L37.2184 34.7751C37.6839 34.9741 38.2226 34.7582 38.4216 34.2927C38.4492 34.228 38.4693 34.1605 38.4815 34.0913L43.9813 2.92591C44.0438 2.57504 43.8972 2.21961 43.6055 2.01483Z" fill="#274690"/>
<path d="M43.8272 3.29809C44.1229 2.88723 44.0296 2.3144 43.6188 2.01861C43.2528 1.75523 42.7495 1.79708 42.4322 2.11744L18.5283 27.3284L25.4268 29.7116L43.8272 3.29809Z" fill="#1B264F"/>
<path d="M2.23986 36.1133C2.00964 36.1135 1.78784 36.0271 1.61838 35.8713C1.1613 35.4509 0.711521 35.0188 0.269133 34.5751C-0.0892976 34.2172 -0.0897273 33.6366 0.268188 33.2781C0.626103 32.9197 1.20676 32.9193 1.56519 33.2772C1.99048 33.7025 2.42315 34.1187 2.86133 34.5219C3.23394 34.8647 3.25817 35.4445 2.91547 35.8171C2.74163 36.0061 2.49654 36.1135 2.23986 36.1133Z" fill="#1B264F"/>
<path d="M14.7279 42.154C13.8447 42.1512 12.964 42.0597 12.0991 41.8808C11.5994 41.7992 11.2606 41.3279 11.3423 40.8283C11.424 40.3287 11.8952 39.9899 12.3948 40.0716C12.4186 40.0754 12.4424 40.0803 12.4657 40.0861C13.2119 40.2401 13.9716 40.3187 14.7334 40.3208H14.7389H15.1514C15.6291 40.2752 16.0535 40.6254 16.0991 41.1031C16.1023 41.1362 16.1035 41.1694 16.1029 41.2026C16.1215 41.7082 15.7268 42.1333 15.2211 42.1522H14.7426L14.7279 42.154ZM8.15941 40.3996C8.01263 40.3996 7.86809 40.3644 7.73773 40.2969C6.83663 39.8254 5.96655 39.297 5.13264 38.7148C4.72643 38.4127 4.64205 37.8385 4.9441 37.4322C5.23241 37.0446 5.77199 36.9472 6.1776 37.2096C6.94559 37.7498 7.74779 38.2397 8.5792 38.6763C9.02872 38.9091 9.20445 39.4622 8.97166 39.9117C8.81414 40.216 8.50014 40.4069 8.15752 40.4069L8.15941 40.3996Z" fill="#274690"/>
<path d="M19.4413 41.1713C18.935 41.1754 18.5213 40.7684 18.5172 40.2622C18.5142 39.8921 18.7341 39.5564 19.0747 39.4114C19.6024 39.1856 20.1149 38.926 20.6091 38.6341C21.0513 38.3877 21.6095 38.5465 21.8559 38.9888C22.0937 39.4156 21.9549 39.9539 21.5404 40.2125C20.9782 40.5448 20.3953 40.8406 19.7951 41.098C19.6832 41.1456 19.5629 41.1706 19.4413 41.1713Z" fill="#1B264F"/>
</svg>
