<svg width="44" height="44" viewBox="0 0 44 44" fill="none" xmlns="http://www.w3.org/2000/svg">
<path d="M13.0129 19.0225L3.40405 37.126L12.1298 36.3198L16.353 43.9987L25.9619 25.8952L13.0129 19.0225Z" fill="#1B264F"/>
<path d="M30.987 19.0225L40.5959 37.126L31.8702 36.3198L27.647 43.9987L18.0381 25.8952L30.987 19.0225Z" fill="#1B264F"/>
<path d="M22 32.1103C30.867 32.1103 38.0551 24.9222 38.0551 16.0551C38.0551 7.18813 30.867 0 22 0C13.133 0 5.94482 7.18813 5.94482 16.0551C5.94482 24.9222 13.133 32.1103 22 32.1103Z" fill="#274690"/>
<path d="M22 27.5143C15.6803 27.5143 10.5396 22.3722 10.5396 16.0539C10.5396 9.73551 15.6803 4.59473 22 4.59473C28.3198 4.59473 33.4605 9.73689 33.4605 16.0552C33.4605 22.3736 28.3198 27.5143 22 27.5143Z" fill="#EBF0FF"/>
<path d="M30.0007 13.517H24.4266L22.7029 8.2153C22.4815 7.53435 21.5171 7.53435 21.2957 8.2153L19.5734 13.517H13.9992C13.2825 13.517 12.984 14.4346 13.5645 14.8555L18.0739 18.1323L16.3516 23.4341C16.1301 24.115 16.9101 24.6818 17.4906 24.2608L22 20.984L26.5094 24.2608C27.0899 24.6818 27.8699 24.115 27.6484 23.4341L25.9261 18.1323L30.4354 14.8555C31.0146 14.4346 30.7175 13.517 30.0007 13.517Z" fill="#274690"/>
</svg>
